Jagarna.2.2011.BRRip.x264.aac.mp4.anoXmous

Format                           : MPEG-4
Format profile                   : Base Media
Codec ID                         : isom
File size                        : 699 MiB
Duration                         : 2h 5mn
Overall bit rate mode            : Variable
Overall bit rate                 : 782 Kbps


Video
ID                               : 1
Format                           : AVC
Format/Info                      : Advanced Video Codec
Format profile                   : High@L4.1
Format settings, CABAC           : Yes
Format settings, ReFrames        : 4 frames
Codec ID                         : avc1
Codec ID/Info                    : Advanced Video Coding
Duration                         : 2h 5mn
Bit rate                         : 712 Kbps
Maximum bit rate                 : 10.9 Mbps
Width                            : 1 280 pixels
Height                           : 528 pixels
Display aspect ratio             : 2.40:1
Frame rate mode                  : Constant
Frame rate                       : 25.000 fps
Color space                      : YUV
Chroma subsampling               : 4:2:0
Bit depth                        : 8 bits
Scan type                        : Progressive
Bits/(Pixel*Frame)               : 0.042
Stream size                      : 636 MiB (91%)
Writing library                  : x264 core 120 r2120 0c7dab9


Audio
ID                               : 2
Format                           : AAC
Format/Info                      : Advanced Audio Codec
Format profile                   : LC
Codec ID                         : 40
Duration                         : 2h 5mn
Bit rate mode                    : Variable
Bit rate                         : 66.2 Kbps
Maximum bit rate                 : 94.4 Kbps
Channel(s)                       : 2 channels
Channel positions                : Front: L R
Sampling rate                    : 48.0 KHz 
Compression mode                 : Lossy
Stream size                      : 60.2 MiB (9%)
Language                         : Swedish

                              SUB:
Jagarna.2.2011.BRRip.x264.aac.mp4.anoXmous_dan.srt
Jagarna.2.2011.BRRip.x264.aac.mp4.anoXmous_fin.srt
Jagarna.2.2011.BRRip.x264.aac.mp4.anoXmous_nor.srt
Jagarna.2.2011.BRRip.x264.aac.mp4.anoXmous_swe.srt
 
http://www.imdb.com/title/tt1560671/

 +++++++ This work very fine with PSP and XBOX :) +++++++++